<svg xmlns="http://www.w3.org/2000/svg" width="414" height="94" viewBox="0 0 414 94"><g transform="translate(-754 -900)"><path d="M-49.18,266.38H-59.82a4.391,4.391,0,0,1-2.96-.96,3.435,3.435,0,0,1-1.12-2.72,8.42,8.42,0,0,1,.88-3.44l2.96-6.64a.484.484,0,0,1,.48-.24h7.68c.16,0,.32.08.32.16v.08l-3.44,7.6a6.991,6.991,0,0,0-.8,2.64c0,.72.4,1.12,1.28,1.12h6.56c1.92,0,3.6-1.68,5.12-4.96l2.88-6.4a.484.484,0,0,1,.48-.24h2.72c.16,0,.24.08.24.16s-1.04,2.32-3.04,6.72a13.629,13.629,0,0,1-3.84,4.96,8.9,8.9,0,0,1-5.76,2.16Zm30.96,0H-31.26a4.822,4.822,0,0,1-2.96-.88,3.249,3.249,0,0,1-1.2-2.72,7.613,7.613,0,0,1,.72-3.04l3.2-7.12a.484.484,0,0,1,.48-.24h7.92c.16,0,.24.08.24.16v.08l-3.68,8.16a6.457,6.457,0,0,0-.72,2.16c0,.72.48,1.04,1.52,1.04h8.48c.16,0,.24.08.24.16v.08l-.88,1.92c.08.16-.08.24-.32.24Zm20.48-11.6-5.12,11.36a.484.484,0,0,1-.48.24h-7.52c-.16,0-.24-.08-.24-.16,0,0,1.68-3.84,5.12-11.44h-5.84c-.16,0-.32-.08-.32-.16,0,0,.32-.64.88-2a.484.484,0,0,1,.48-.24H9.38c.16,0,.24.08.24.16,0,0-.32.72-.88,2a.484.484,0,0,1-.48.24Zm13.84,11.6H8.58c-.16,0-.24-.08-.24-.16,0,0,2.08-4.56,6.16-13.6a.484.484,0,0,1,.48-.24H22.5c.16,0,.24.08.24.16,0,0-2.08,4.56-6.16,13.6a.484.484,0,0,1-.48.24Zm32.64,0H41.3c-.16,0-.32-.08-.32-.16,0,0,.8-1.92,2.48-5.6l-9.04,5.68a2.251,2.251,0,0,1-.88.08c-.56,0-.96,0-.96-.08l-4.64-5.68-2.48,5.52a.484.484,0,0,1-.48.24H22.1c-.16,0-.32-.08-.32-.16,0,0,2.08-4.56,6.16-13.6a.484.484,0,0,1,.48-.24h3.04c.16,0,.24,0,.24.08l5.68,9.04,14.64-9.12a.481.481,0,0,1,.32-.08h2.72c.16,0,.32.08.32.16,0,0-2.08,4.56-6.16,13.6a.439.439,0,0,1-.48.32Zm35.68,0H75.06c-.16,0-.24,0-.24-.08l-5.92-9.04-10.24,6.72H69.7c.16,0,.24.08.24.16,0,0-.32.72-.88,2a.484.484,0,0,1-.48.24h-16c-.24,0-.32-.08-.32-.16s.08-.16.24-.24l21.04-13.52a.481.481,0,0,1,.32-.08H76.1c.16,0,.24,0,.24.08,5.68,9.04,8.56,13.6,8.56,13.68q0,.24-.48.24Zm24.08-11.6-5.12,11.36a.484.484,0,0,1-.48.24H95.38c-.16,0-.24-.08-.24-.16,0,0,1.68-3.84,5.12-11.44H94.42c-.16,0-.32-.08-.32-.16,0,0,.32-.64.88-2a.484.484,0,0,1,.48-.24h20.08c.16,0,.24.08.24.16,0,0-.32.72-.88,2a.484.484,0,0,1-.48.24Zm27.2,5.2h-10c-.16,0-.24-.08-.24-.16,0,0,.32-.72.88-2a.484.484,0,0,1,.48-.24h10a.212.212,0,0,1,.24.24s-.32.64-.88,2a.676.676,0,0,1-.48.16Zm-2.96,6.4H118.66a4.251,4.251,0,0,1-2.96-.96,3.408,3.408,0,0,1-1.2-2.8,7.572,7.572,0,0,1,.8-3.28,12.169,12.169,0,0,1,3.84-4.88,9.273,9.273,0,0,1,5.84-2.16h14.08c.16,0,.24.08.24.16v.08l-.88,1.92a.484.484,0,0,1-.48.24h-9.36a3.256,3.256,0,0,0-2.4.96,8.484,8.484,0,0,0-1.36,2.24l-.96,2.24a6.719,6.719,0,0,0-.8,2.56q0,1.2,1.44,1.2h9.44c.16,0,.32.08.32.16v.08l-.88,1.92a.728.728,0,0,1-.64.32Zm42.4-6.4h-10c-.16,0-.24-.08-.24-.16,0,0,.32-.72.88-2a.484.484,0,0,1,.48-.24h10a.212.212,0,0,1,.24.24s-.32.64-.88,2a.676.676,0,0,1-.48.16Zm-15.12,6.4H152.1c-.16,0-.24-.08-.24-.16s1.12-2.48,3.28-7.2a11.665,11.665,0,0,1,3.76-4.64,9.069,9.069,0,0,1,5.6-2h14.08c.16,0,.24.08.24.16v.08l-.88,1.92a.484.484,0,0,1-.48.24h-9.44a3.256,3.256,0,0,0-2.4.96,8.484,8.484,0,0,0-1.36,2.24l-3.68,8.16a.726.726,0,0,1-.56.24Zm22.56,0h-7.52c-.16,0-.24-.08-.24-.16,0,0,2.08-4.56,6.16-13.6a.484.484,0,0,1,.48-.24h7.52c.16,0,.24.08.24.16,0,0-2.08,4.56-6.16,13.6a.484.484,0,0,1-.48.24Zm27.68,0h-14.8a4.251,4.251,0,0,1-2.96-.96,3.408,3.408,0,0,1-1.2-2.8,7.572,7.572,0,0,1,.8-3.28,12.9,12.9,0,0,1,3.84-4.88,9.273,9.273,0,0,1,5.84-2.16h13.28c.16,0,.32.08.32.16v.08l-.88,1.92a.484.484,0,0,1-.48.24H205.3a3.256,3.256,0,0,0-2.4.96,8.485,8.485,0,0,0-1.36,2.24l-.96,2.24a6.719,6.719,0,0,0-.8,2.56q0,1.2,1.44,1.2h2.32l2.96-6.56a.484.484,0,0,1,.48-.24h7.44c.16,0,.32.08.32.16,0,0-1.36,2.96-4,8.8a.439.439,0,0,1-.48.32Zm26,0h-7.52c-.16,0-.24-.08-.24-.16,0,0,.96-2.08,2.8-6.24h-6.32l-2.8,6.16a.484.484,0,0,1-.48.24h-7.52c-.16,0-.24-.08-.24-.16,0,0,2.08-4.56,6.16-13.6a.484.484,0,0,1,.48-.24h7.52c.16,0,.24.08.24.16,0,0-.72,1.68-2.24,4.96h6.32l2.24-4.88a.484.484,0,0,1,.48-.24h7.52c.16,0,.24.08.24.16,0,0-2,4.56-6.08,13.6a.726.726,0,0,1-.56.24Zm21.68-11.6-5.12,11.36a.484.484,0,0,1-.48.24h-7.52c-.16,0-.24-.08-.24-.16,0,0,1.68-3.84,5.12-11.44h-5.84c-.16,0-.32-.08-.32-.16,0,0,.32-.64.88-2a.484.484,0,0,1,.48-.24h20.08c.16,0,.24.08.24.16,0,0-.32.72-.88,2a.484.484,0,0,1-.48.24Zm13.92,11.6h-7.52c-.16,0-.24-.08-.24-.16,0,0,2.08-4.56,6.16-13.6a.484.484,0,0,1,.48-.24h7.52c.16,0,.24.08.24.16,0,0-2.08,4.56-6.16,13.6a.484.484,0,0,1-.48.24Zm30.64,0h-3.36a3.267,3.267,0,0,1-1.28-.32l-14.24-5.6-2.56,5.68a.484.484,0,0,1-.48.24H277.7c-.16,0-.32-.08-.32-.16v-.08l6.08-13.52a.484.484,0,0,1,.48-.24h3.2a3.132,3.132,0,0,1,1.04.24l14.56,5.76,2.64-5.76a.484.484,0,0,1,.48-.24h2.88c.16,0,.24.08.24.16v.08l-6.08,13.52c0,.16-.16.24-.4.24Zm26.64,0h-14.8a4.251,4.251,0,0,1-2.96-.96,3.408,3.408,0,0,1-1.2-2.8,7.572,7.572,0,0,1,.8-3.28,12.9,12.9,0,0,1,3.84-4.88,9.273,9.273,0,0,1,5.84-2.16h13.28c.16,0,.32.08.32.16v.08l-.88,1.92a.484.484,0,0,1-.48.24h-8.72a3.256,3.256,0,0,0-2.4.96,8.485,8.485,0,0,0-1.36,2.24l-.96,2.24a6.719,6.719,0,0,0-.8,2.56q0,1.2,1.44,1.2h2.32l2.96-6.56a.484.484,0,0,1,.48-.24h7.44c.16,0,.32.08.32.16,0,0-1.36,2.96-4,8.8,0,.24-.16.32-.48.32Z" transform="translate(824.9 647.7)" fill="#3a3a3a"/><path d="M47.52,296.98H40c-.16,0-.24-.08-.24-.16,0,0,.96-2.08,2.8-6.24H36.24l-2.8,6.16a.484.484,0,0,1-.48.24H25.44c-.16,0-.24-.08-.24-.16,0,0,2.08-4.56,6.16-13.6a.484.484,0,0,1,.48-.24h7.52c.16,0,.24.08.24.16,0,0-.72,1.68-2.24,4.96h6.32l2.24-4.88a.484.484,0,0,1,.48-.24h7.52c.16,0,.24.08.24.16,0,0-2,4.56-6.08,13.6a.726.726,0,0,1-.56.24Zm36.08,0H74.24c-.16,0-.24,0-.24-.08l-5.92-9.04-10.24,6.72H68.8c.16,0,.24.08.24.16,0,0-.32.72-.88,2a.484.484,0,0,1-.48.24h-16c-.24,0-.32-.08-.32-.16s.08-.16.24-.24l21.04-13.52a.481.481,0,0,1,.32-.08H75.2c.16,0,.24,0,.24.08,5.68,9.04,8.56,13.6,8.56,13.68.08.16-.08.24-.4.24Zm30.88,0h-7.44c-.16,0-.32-.08-.32-.16,0,0,.8-1.92,2.48-5.6l-9.04,5.68a2.251,2.251,0,0,1-.88.08c-.56,0-.96,0-.96-.08l-4.64-5.68-2.48,5.52a.484.484,0,0,1-.48.24H87.84c-.16,0-.32-.08-.32-.16,0,0,2.08-4.56,6.16-13.6a.484.484,0,0,1,.48-.24H97.2c.16,0,.24,0,.24.08l5.68,9.04,14.64-9.04a.481.481,0,0,1,.32-.08h2.72c.16,0,.32.08.32.16,0,0-2.08,4.56-6.16,13.6q0,.24-.48.24Zm25.2-6.4h-7.92c-.16,0-.24-.08-.24-.16v-.08l.88-1.92a.484.484,0,0,1,.48-.24h2.72a3.814,3.814,0,0,0,1.6-.32,2.057,2.057,0,0,0,1.12-1.04,1.015,1.015,0,0,0,.08-.48c0-.64-.56-.96-1.6-.96h-4.24l-5.12,11.36a.484.484,0,0,1-.48.24h-7.44c-.16,0-.32-.08-.32-.16,0,0,2.08-4.56,6.16-13.6a.484.484,0,0,1,.48-.24h17.84a4.647,4.647,0,0,1,2.24.48,2.033,2.033,0,0,1,1.12,1.84,4.14,4.14,0,0,1-1.52,3.04,8.089,8.089,0,0,1-5.84,2.24Zm13.6,6.4h-7.52c-.16,0-.24-.08-.24-.16,0,0,2.08-4.56,6.16-13.6a.484.484,0,0,1,.48-.24h7.52c.16,0,.24.08.24.16,0,0-2.08,4.56-6.16,13.6a.484.484,0,0,1-.48.24Zm21.04,0H163.6a4.251,4.251,0,0,1-2.96-.96,3.408,3.408,0,0,1-1.2-2.8,7.84,7.84,0,0,1,.8-3.28,12.739,12.739,0,0,1,3.84-4.88,9.44,9.44,0,0,1,5.84-2.16h10.72a4.906,4.906,0,0,1,3.04.88,3.408,3.408,0,0,1,1.2,2.8,8.461,8.461,0,0,1-.8,3.36,12.789,12.789,0,0,1-3.92,4.88,9.612,9.612,0,0,1-5.84,2.16Zm2.16-10.56c0-.72-.48-1.04-1.52-1.04h-1.84a2.882,2.882,0,0,0-2.32,1.04,8.725,8.725,0,0,0-1.28,2.24l-.96,2.24a6.991,6.991,0,0,0-.8,2.64c0,.72.4,1.12,1.28,1.12h1.84a3.215,3.215,0,0,0,2.56-1.28,9.647,9.647,0,0,0,1.44-2.48l1.04-2.24a6.791,6.791,0,0,0,.56-2.24Zm32.96,10.56h-3.36a3.267,3.267,0,0,1-1.28-.32l-14.24-5.6L188,296.74a.484.484,0,0,1-.48.24h-2.88c-.16,0-.32-.08-.32-.16v-.08l6.08-13.52a.484.484,0,0,1,.48-.24h3.2a3.132,3.132,0,0,1,1.04.24l14.56,5.76,2.64-5.76a.484.484,0,0,1,.48-.24h2.88c.16,0,.24.08.24.16v.08l-6.08,13.52c.08.16-.08.24-.4.24Zm17.04,0h-12c-.16,0-.32-.08-.32-.16v-.08l.88-1.92a.484.484,0,0,1,.48-.24h9.28l-5.2-4.64a3.823,3.823,0,0,1-1.52-2.72,3.259,3.259,0,0,1,1.76-2.72,8.534,8.534,0,0,1,3.28-1.28,12.21,12.21,0,0,1,2.4-.24h12.72c.16,0,.24.08.24.16v.08l-.88,1.92a.484.484,0,0,1-.48.24h-9.28l5.12,4.72c1.28,1.2,1.92,2.24,1.92,3.28,0,1.36-1.12,2.4-3.36,3.04a19.437,19.437,0,0,1-5.04.56Zm33.04,0H252c-.16,0-.24-.08-.24-.16,0,0,.96-2.08,2.8-6.24h-6.32l-2.8,6.16a.484.484,0,0,1-.48.24h-7.52c-.16,0-.24-.08-.24-.16,0,0,2.08-4.56,6.16-13.6a.484.484,0,0,1,.48-.24h7.52c.16,0,.24.08.24.16,0,0-.72,1.68-2.24,4.96h6.32l2.24-4.88a.484.484,0,0,1,.48-.24h7.52c.16,0,.24.08.24.16,0,0-2,4.56-6.08,13.6a.623.623,0,0,1-.56.24Zm12.08,0h-7.52c-.16,0-.24-.08-.24-.16,0,0,2.08-4.56,6.16-13.6a.484.484,0,0,1,.48-.24H278c.16,0,.24.08.24.16,0,0-2.08,4.56-6.16,13.6a.484.484,0,0,1-.48.24Z" transform="translate(807.08 641.58)" fill="#3a3a3a"/><path d="M7.72,304.04H-15.4a7.137,7.137,0,0,1-4.88-1.52,5.806,5.806,0,0,1-1.92-4.64,12.757,12.757,0,0,1,1.28-5.36,20.909,20.909,0,0,1,6.4-8A15.425,15.425,0,0,1-5,281H18.12c.32,0,.48.08.48.32v.16l-1.36,3.12a.883.883,0,0,1-.8.4H.92A5.18,5.18,0,0,0-3,286.6a12.846,12.846,0,0,0-2.24,3.68l-1.68,3.68A11.637,11.637,0,0,0-8.2,298.2c0,1.28.8,1.92,2.32,1.92H9.64c.32,0,.48.08.48.32v.16l-1.36,3.12a2.269,2.269,0,0,1-1.04.32Z" transform="translate(816.56 641.96)" fill="#3a3a3a"/><path d="M373.94,293.48H360.98c-.32,0-.48-.08-.48-.32V293l1.36-3.12c.08-.32.4-.4.8-.4h4.4a5.689,5.689,0,0,0,2.56-.56,3.207,3.207,0,0,0,1.84-1.68,4.061,4.061,0,0,0,.16-.72c0-1.04-.88-1.52-2.56-1.52H362.1l-8.48,18.64c-.16.32-.4.4-.8.4H340.58c-.32,0-.48-.08-.48-.32,0-.08,3.36-7.44,10.08-22.32.16-.32.4-.4.8-.4h29.28a7.171,7.171,0,0,1,3.68.8,3.281,3.281,0,0,1,1.76,3.04,6.767,6.767,0,0,1-2.48,4.96,12.115,12.115,0,0,1-9.28,3.68Z" transform="translate(744.1 641.96)" fill="#3a3a3a"/><text transform="translate(754 988)" fill="#95989a" font-size="22" font-family="Roboto-Regular, Roboto" letter-spacing="0.01em"><tspan x="0" y="0">American mixed martial arts organization</tspan></text></g></svg>