<svg xmlns="http://www.w3.org/2000/svg" width="27" height="27" viewBox="0 0 27 27"><path d="M24.091,17.847a5.062,5.062,0,0,0-3.471,1.34,4.711,4.711,0,0,0-.67.782l-8.483-4.8a4.241,4.241,0,0,0,0-3.38l8.485-4.763a5,5,0,0,0,4.139,2.126A4.757,4.757,0,0,0,29,4.576,4.757,4.757,0,0,0,24.091,0a4.757,4.757,0,0,0-4.909,4.576,4.279,4.279,0,0,0,.327,1.63l-8.5,4.77A5,5,0,0,0,6.909,8.9,4.757,4.757,0,0,0,2,13.48a4.757,4.757,0,0,0,4.909,4.576,5,5,0,0,0,4.1-2.073l8.495,4.806a4.3,4.3,0,0,0-.326,1.634A4.395,4.395,0,0,0,20.62,25.66a5.165,5.165,0,0,0,6.942,0,4.36,4.36,0,0,0,0-6.472A5.062,5.062,0,0,0,24.091,17.847Z" transform="translate(-2)" fill="#3a3a3a"/></svg>